<?xml version="1.0" encoding="utf-8"?>
<!-- Generator: Adobe Illustrator 22.0.1, SVG Export Plug-In . SVG Version: 6.00 Build 0)  -->
<svg version="1.1" id="Layer_1" xmlns="http://www.w3.org/2000/svg" xmlns:xlink="http://www.w3.org/1999/xlink" x="0px" y="0px"
	 viewBox="0 0 3263.2 3263.2" style="enable-background:new 0 0 3263.2 3263.2;" xml:space="preserve">
<style type="text/css">
	.st0{fill:#FFFFFF;}
	.st1{fill:none;stroke:#FFFFFF;stroke-width:40;stroke-miterlimit:10;}
</style>
<path class="st0" d="M944.9,2149.4c-148.7,0-270.6-45.6-365.6-136.8c-95-91.2-142.5-205.6-142.5-343.3c0-101.2,27-196.5,81-286
	c54-89.5,129.6-161.4,226.7-215.8c97.1-54.4,198.6-81.6,304.6-81.6c75.7,0,146,14,210.7,41.8c60.5,26.1,112.3,62.5,155.4,109.4
	l8.8,9.9l207.6-192.7c-166-156.8-362.7-235.2-590-235.2c-161.9,0-311.4,38.8-448.4,116.3c-137.1,77.5-245.8,183.6-326,318.3
	c-80.3,134.7-120.4,275.5-120.4,422.2c0,137.1,33.9,264.4,101.8,381.9c67.8,117.5,157.7,206.6,269.7,267.2s247.8,91,407.7,91
	c227.3,0,427.4-60.9,600.4-182.8L1358,2010.2C1241.6,2103,1103.9,2149.4,944.9,2149.4z"/>
<circle class="st1" cx="1631.6" cy="1631.6" r="1611.6"/>
<path class="st0" d="M3023.7,2413.8L3023.7,2413.8L2627,817.4l-252.8,0l-861.5,1596.4l0,0 M2448.3,1268.6l128.1,523.7l-408.6,0
	L2448.3,1268.6z M1834.9,2413.8l181.7-339.2l632,0l84.3,339.2l0,0L1834.9,2413.8L1834.9,2413.8z"/>
</svg>
